# xmcd
#
# Track frame offsets: 
#        150
#        22755
#        39571
#        60662
#        78237
#        96472
#        116684
#        136371
#        159095
#        177929
#        197535
#        218268
#        235074
#        249702
#        266018
#
# Disc length: 3776 seconds
#
# Revision: 3
# Processed by: cddbd v1.5.2PL0 Copyright (c) Steve Scherf et al.
# Submitted via: ExactAudioCopyFreeDBPlugin 1.0
#
DISCID=bd0ebe0f
DTITLE=Usher - Raymond V Raymond (Deluxe Edition) [CD1]
DYEAR=2010
DGENRE=R&B
TTITLE0=Monstar
TTITLE1=Hey Daddy (Daddy's Home)
TTITLE2=There Goes My Baby
TTITLE3=Lil Freak Feat. Nicki Minaj
TTITLE4=She Don't Know Feat. Ludacris
TTITLE5=OMG Feat. will.I.am
TTITLE6=Mars Vs. Venus
TTITLE7=Pro Lover
TTITLE8=Foolin' Around
TTITLE9=Papers
TTITLE10=So Many Girls
TTITLE11=Guilty Feat. T.I.
TTITLE12=Okay
TTITLE13=Making Love (Into The Night)
TTITLE14=More
EXTD=YEAR: 2010
EXTT0=
EXTT1=
EXTT2=
EXTT3=
EXTT4=
EXTT5=
EXTT6=
EXTT7=
EXTT8=
EXTT9=
EXTT10=
EXTT11=
EXTT12=
EXTT13=
EXTT14=
PLAYORDER=
